<svg width="96" height="99" viewBox="0 0 96 99" fill="none" xmlns="http://www.w3.org/2000/svg">
<path d="M88.2937 84.5483C93.5343 78.6526 96.4821 70.5734 95.9362 61.8392C95.2399 52.0904 89.8304 43.5199 82.0201 38.4401C80.9823 37.7651 79.6687 38.5471 79.6687 39.7851C78.7952 60.4198 61.8726 77.8884 41.1287 79.5261C40.1171 79.5261 39.5036 80.7334 40.0842 81.5617C45.2505 88.9334 53.4963 93.9974 62.8552 94.7018C67.1131 94.9202 71.2619 94.4835 75.1923 93.1733C77.1576 92.5183 84.9092 96.2303 89.2764 98.5231C90.3681 99.069 91.6783 97.9772 91.1324 96.7762C89.4947 92.6275 87.3111 85.7492 88.2937 84.5483Z" fill="#FFEDDA"/>
<path d="M75.5185 39.5689C74.6451 58.3476 59.4693 73.9601 40.7998 75.3794C35.5592 75.707 30.4278 75.0519 25.624 73.5234C23.1129 72.65 13.7235 77.3446 8.26462 80.1833C6.95448 80.8383 5.31681 79.5282 5.97188 77.9997C7.93709 72.7591 10.7757 64.2432 9.46558 62.8239C3.02406 55.509 -0.578826 45.6829 0.0762438 34.8743C1.38638 16.0956 17.1081 0.8106 35.8868 0.0463516C58.1591 -1.04543 76.5011 17.2965 75.5185 39.5689Z" fill="#3DB2FF"/>
<path d="M38.6196 46.4483H35.6718C34.7984 46.4483 34.0341 45.6841 34.0341 44.8106C34.0341 42.8454 34.3617 41.2078 35.0167 39.8976C35.6718 38.5875 36.9819 37.1682 38.9472 35.6397C40.9124 34.002 42.1133 33.0194 42.4409 32.4735C42.9868 31.7092 43.3143 30.8358 43.3143 29.8532C43.3143 28.5431 42.7684 27.4513 41.7858 26.4687C40.694 25.4861 39.3839 25.0494 37.5278 25.0494C35.781 25.0494 34.3617 25.4861 33.2699 26.4687C32.6148 27.0146 32.0689 27.7788 31.6322 28.6522C31.0863 29.9624 29.7762 30.7266 28.3569 30.6174C26.1733 30.2899 24.8631 27.888 25.9549 25.9228C26.5008 24.831 27.3742 23.8484 28.3569 22.8658C30.6496 20.9006 33.5974 19.918 37.2003 19.918C41.0215 19.918 44.0785 20.9006 46.3713 22.975C48.664 24.9402 49.7558 27.3421 49.7558 29.9624C49.7558 31.4909 49.3191 32.801 48.5549 34.1112C47.7906 35.4213 45.9346 37.2773 43.2051 39.4609C41.7858 40.6619 40.9124 41.5353 40.5848 42.2995C40.3665 42.8454 40.1481 43.6097 40.1481 44.7015C40.1481 45.7932 39.493 46.4483 38.6196 46.4483ZM34.1433 52.2348V51.9072C34.1433 50.1604 35.5626 48.7411 37.3095 48.7411H37.637C39.3839 48.7411 40.8032 50.1604 40.8032 51.9072V52.2348C40.8032 53.9816 39.3839 55.4009 37.637 55.4009H37.3095C35.5626 55.4009 34.1433 53.9816 34.1433 52.2348Z" fill="white"/>
</svg>
